<mxfile host="app.diagrams.net" modified="2023-10-07T06:11:27.545Z" agent="Mozilla/5.0 (Windows NT 10.0; Win64; x64) AppleWebKit/537.36 (KHTML, like Gecko) Chrome/117.0.0.0 Safari/537.36" version="21.8.2" etag="WB7wzofCGjkomVZPv-2P" type="github">
  <diagram name="第 1 页" id="8Un6OCcCFeTwmlxu_wtO">
    <mxGraphModel>
      <root>
        <mxCell id="0" />
        <mxCell id="1" parent="0" />
      </root>
    </mxGraphModel>
  </diagram>
</mxfile>
